<svg version="1.2" xmlns="http://www.w3.org/2000/svg" viewBox="0 0 1024 1024" width="1024" height="1024">
	<title>DataMindAI-logo-complete : Font is Nunito Sans</title>
	<style>
		.s0 { fill: #fefefe } 
		.s1 { fill: #3577a8 } 
	</style>
	<g id="Background">
		<path id="Path 0" class="s0" d="m0 512v512h1024v-1024h-1024z"/>
		<path id="Path 1" class="s1" d="m260.5 335.5c-4.9 0.8-12.4 2.4-16.5 3.6-4.1 1.1-12 3.8-17.5 5.9-5.5 2.2-14.1 6.3-19.2 9.2-5.1 2.9-12.9 8-17.5 11.3-4.6 3.3-12.6 10.3-17.9 15.5-5.3 5.2-12.1 12.9-15.1 17-3 4.1-7.8 11.6-10.7 16.5-2.8 4.9-6.5 12.8-8.2 17.5-1.7 4.7-3.9 12.1-5 16.5-1.1 4.6-2.2 13.5-2.6 21-0.4 8.3-0.1 16.1 0.7 21.5 0.6 4.7 2.3 12.3 3.6 17 1.4 4.7 4.4 12.5 6.8 17.5 2.4 5 7 12.6 10.3 17 3.3 4.4 10.3 13 15.7 19 5.4 6 11.8 13.7 14.3 17 2.4 3.3 5.5 8.3 6.9 11 1.3 2.7 3.1 8.1 3.9 12 1.1 5.3 1.5 14.1 1.5 35.5 0 21.7 0.3 28.8 1.2 29.8 1 0.9 9.4 1.2 36.8 1.2l35.5-0.1c20.9 13.3 27.9 17.4 29 17.8 1.1 0.3 2.8 0.3 3.7-0.1 1-0.3 9.6-10.1 19-21.6 13.4-16.3 17.8-21.1 19.5-21 1.3 0 9.8 0.9 19 2.1 10.2 1.2 20.2 1.9 25.3 1.7 6.6-0.4 9.6-1 13.5-3 2.7-1.4 6.7-4.4 8.7-6.7 2.1-2.2 4.3-5.3 4.9-6.9 0.6-1.5 3.1-16 5.5-32.2 2.4-16.2 4.5-29.5 4.6-29.6 0.2 0 3.9-1.6 8.3-3.5 4.4-1.9 9.6-5 11.7-6.9 3.2-3 3.7-4.2 3.8-7.7 0-2.5-0.9-6.1-2.2-8.5-1.1-2.4-7-13.1-13.1-23.8l-11-19.5c2.6-17.1 3.3-26.2 3.3-31.2 0-5.1-0.7-12.4-1.5-16.3-0.8-3.9-2.4-9.8-3.6-13.2-1.1-3.5-3.9-10.1-6-14.8-2.2-4.7-6.9-12.8-10.4-18-3.5-5.2-9.2-12.9-12.8-17-3.5-4.1-10.1-10.6-14.7-14.5-4.5-3.9-11.6-9.4-15.8-12.3-4.2-3-13.6-8.2-20.7-11.7-7.1-3.5-16.4-7.5-20.5-8.8-4.1-1.4-11.3-3.2-16-4.2-4.7-0.9-13.2-1.8-19-2-6.5-0.3-13.9 0.1-19.5 1zm221.6 120.9l-0.1 48.6c31.4 0 39.8-0.5 44.5-1.5 3.9-0.8 9.9-2.9 13.5-4.7 3.6-1.8 8.6-5.4 11.3-8 2.8-2.9 6.2-7.9 8.4-12.6 3.5-7.2 3.8-8.4 4.2-18.7 0.2-8-0.1-12.8-1.3-17.5-0.9-3.6-3.1-8.9-4.9-11.9-1.8-2.9-5.2-7.1-7.7-9.3-2.5-2.2-6.7-5.2-9.5-6.6-2.7-1.4-7.2-3.2-10-4-3.4-1-11.9-1.6-26.6-1.9l-21.7-0.5zm171.7-30.2l-0.3 9.3c-6.2 0.4-9 0.7-10.2 1-2.1 0.4-2.3 1.1-2.3 6.5v6h12c0.5 43.9 0.6 44.6 3 48.8 1.4 2.4 4.1 5.3 6 6.5 2.6 1.6 5.6 2.2 12 2.5 4.7 0.3 10.1 0.2 12-0.2l3.5-0.6-0.5-14c-9 0.9-12.6 0.7-14 0.1-1.4-0.6-3.1-2.2-3.7-3.6-0.9-1.7-1.3-8.2-1.3-21v-18.5h20v-14h-20l-0.5-17.5-15.3-0.6zm-57.9 8.8c-2.4 0.4-5.8 1.4-7.5 2.2-1.6 0.9-4.4 2.9-6.2 4.7-1.8 1.7-3.8 4.9-4.5 7.1-0.7 2.2-1 4.2-0.8 4.4 0.3 0.3 3.2 0.6 6.5 0.8 5.4 0.2 6.3-0.1 8.7-2.5 2.5-2.5 3.4-2.7 10.3-2.7 7.3 0 7.7 0.1 11 3.5 3 2.9 3.5 4.1 3.3 7.2l-0.3 3.8c-20.1 1.7-27.5 2.7-29.5 3.3-1.9 0.6-5.1 2.9-7.1 4.9-2.1 2.1-4.2 5-4.8 6.5-0.6 1.6-1.1 5.3-1.1 8.3 0 3.4 0.8 6.9 1.9 9.2 1.1 2.1 3 4.8 4.3 6 1.3 1.2 4 2.9 6.1 3.7 2.1 0.9 6.4 1.6 9.7 1.6 3.3 0 7.7-0.7 9.8-1.6 2.1-0.8 5.4-3.2 7.5-5.2l3.8-3.7c-0.1 4.3 0.2 6.2 0.4 7 0.4 1.2 2.3 1.5 8.3 1.5h7.7c-0.5-51.8-0.6-52.6-3-57.8-1.6-3.3-3.8-6.1-6.2-7.7-2.1-1.4-6.5-3.2-9.8-4-3.3-0.8-7.8-1.4-10-1.4-2.2 0.1-6 0.5-8.5 0.9zm124.5-0.1c-2.2 0.5-5.8 1.8-8 2.9-2.2 1.1-5.2 3.3-6.6 4.9-1.5 1.5-3.2 4-3.8 5.5-0.6 1.6-1.1 3.6-1.1 4.5 0 1.5 1 1.8 6.6 1.8 4.9 0 6.9-0.4 7.8-1.6 0.6-0.9 2.2-2.1 3.4-2.7 1.2-0.7 4.8-1.3 8-1.3 3.4-0.1 7 0.4 8.7 1.3 1.7 0.8 3.6 2.8 4.3 4.4 0.8 1.6 1.2 4.2 1 5.9l-0.3 3c-17 1.2-24.4 2.3-27.5 3.1-3.6 1.1-6.7 2.9-9.1 5.3-2 2-4.1 5.4-4.7 7.6-0.6 2.2-1.1 5.5-1.2 7.2 0 1.8 0.7 5 1.6 7 0.8 2.1 2.8 5.1 4.2 6.7 1.5 1.6 4.5 3.7 6.7 4.7 2.5 1.2 6.3 1.9 10 1.9 3.8 0 7.6-0.7 10-1.9 2.2-1 5.4-3.3 7-5 2.2-2.2 3.2-2.8 3.8-1.9 0.4 0.7 0.7 2.5 0.7 4v2.8h16c0-38-0.4-50.9-1-53.3-0.5-2.3-2.5-6-4.3-8.2-2-2.4-5.4-4.9-8.5-6.3-3.1-1.3-8-2.4-12.4-2.7-4-0.2-9.1 0-11.3 0.4zm-127.2 93.6c-1.2 0.8-2.7 3.1-3.3 5-0.7 2.7-0.6 4.3 0.5 6.7 0.8 1.8 2.6 3.9 4 4.5 1.4 0.7 3.4 1.3 4.5 1.3 1.1 0 3.4-0.7 5-1.5 1.7-0.8 3.5-2.7 4.1-4.3 0.6-1.5 0.8-4.2 0.5-6-0.3-1.9-1.7-4-3.3-5.2-1.6-1.2-4.3-2.1-6.3-2-1.9 0-4.5 0.7-5.7 1.5zm-111 47.1l0.2 47.6 17.5 0.3 0.1-59c20.4 40.4 23.4 45.6 25.2 46.1 1.2 0.3 3.5 0.3 5 0 2.4-0.5 4.1-3.3 14.5-24.1l11.7-23.5 1 60.2h17l0.5-95.2-20.4 0.5c-19.8 41.8-25.8 53.9-26.3 53.8-0.4-0.2-6.6-12.4-13.8-27.3l-13-27h-19.5zm258.8-30.1v17.5c-6.6-5.4-10.4-7.4-12.8-8-2.3-0.6-6-1-8.2-1-2.2 0-6.4 0.9-9.3 2-2.9 1-7 3.4-9.2 5.3-2.2 1.9-5.3 5.8-6.8 8.8-1.5 3-3.2 8.5-3.8 12.4-0.9 5.2-0.8 8.8 0 14 0.7 3.8 2.4 9.2 3.9 11.9 1.5 2.7 4.7 6.6 7.2 8.8 2.5 2.1 6.7 4.6 9.5 5.5 2.7 0.8 7.5 1.6 10.5 1.6 3.8 0 7-0.8 10.4-2.4 2.7-1.3 5.7-3.5 6.7-4.9l1.9-2.5 0.5 8.7 16.5 0.3v-95.5h-17zm59.5-15.8c-0.4 1-6.6 18-13.7 37.8-7.2 19.8-14.6 40.5-16.4 46-1.9 5.5-3.4 10-3.4 10 0 0 4.3-0.2 9.6-0.5l9.7-0.5 7.4-21h35.7l7.3 21c18 0.9 19.3 0.8 18.9-0.5-0.2-0.8-5.9-16.6-12.6-35-6.7-18.4-14.2-39.2-16.6-46.3l-4.4-12.7c-19.4 0-20.9 0.2-21.5 1.7zm67.5 46v47.8h18v-95.5h-18zm-217-20.9c-1.4 0.5-3.6 1.4-5 2.1-1.4 0.7-4 2.7-5.8 4.4l-3.3 3.1 0.1-9.5h-16v68.5l16.5-0.1c0.9-42 1.3-46.3 2.6-48.4 0.9-1.3 3.4-3.3 5.5-4.3 2.9-1.4 5.1-1.8 8.9-1.4 2.9 0.4 5.7 1.4 6.8 2.4 1 1 2.2 3.9 2.7 6.3 0.5 2.5 0.9 13.7 0.9 24.8l0.1 20.2h16l-0.5-53.5c-4.6-7.9-7-10.3-10.3-12.1-3.3-1.9-6.5-2.8-10.7-3-3.3-0.2-7.1 0.1-8.5 0.5zm-60 34.4v34.2l16-0.5v-68h-16z"/>
		<path id="Path 2" class="s0" d="m254.5 362c-3.8 1-10.4 3-14.5 4.5-4.1 1.5-10.7 4.3-14.5 6.2-3.8 2-10.6 5.9-15 8.7-4.4 2.9-11.6 8.3-15.9 12.2-4.4 3.8-10.9 10.5-14.5 14.9-3.7 4.4-8.7 11.4-11.3 15.5-2.6 4.1-6 10.9-7.7 15-1.6 4.1-3.8 10.6-4.7 14.5-1.3 5.1-1.8 11-1.7 21.5 0 11.7 0.4 16 2.2 22.5 1.1 4.4 3.8 11.6 6 16 2.1 4.4 6.2 11.2 9.2 15.2 3 3.9 10.2 12.4 16 19 5.8 6.5 12.5 14.3 14.8 17.3 2.4 3 5.6 8.2 7.2 11.5 1.6 3.3 3.9 9.6 5 14 1.9 6.8 2.2 11.4 2.5 30.8l0.4 22.7h47v-84.5c-55.2-55-75.6-75.8-81.1-81.8-7.6-8.2-9.9-11.3-9.9-13.5 0.1-2.2 7.8-10.3 45.1-47.2l45.1-44.5c0.7-11.6 0.5-12.5-1-12.4-0.9 0-4.8 0.8-8.7 1.9zm33.6 4.8l0.1 6.7c14.6 13.2 35.3 33.5 55.3 53.8 20.1 20.2 36.4 37.3 36.2 38.1-0.1 0.8-9 10.6-19.8 21.8-10.8 11.2-31.4 32.2-45.7 46.8l-26.1 26.5c-0.1 87 0.1 98.4 1.1 99.8 1.2 1.5 3.2-0.5 18.8-18.9 9.6-11.4 18.3-21 19.2-21.5 1.1-0.6 10 0.2 23.8 2.1 12.1 1.6 24 3 26.5 3 2.5 0 5.9-0.7 7.5-1.5 1.6-0.8 3.6-2.7 4.4-4.2 0.8-1.6 2.1-7.5 3-13.3 0.9-5.8 2.7-19.3 4-30 1.2-10.7 2.6-20.1 2.9-20.7 0.4-0.7 4.4-3.2 8.9-5.4 4.6-2.3 8.4-4.3 8.5-4.5 0.2-0.2-5.3-10.6-12.2-23.1-11.4-20.7-12.5-23.3-12.5-27.8 0-2.7 1.2-8.8 2.5-13.5 1.5-4.9 2.5-11.1 2.5-14.5 0-3.3-0.8-9.4-1.9-13.5-1-4.1-3.3-10.9-5.1-15-1.8-4.1-4.9-10.2-6.8-13.5-2-3.3-5.6-8.7-8.1-12-2.5-3.3-8.1-9.6-12.6-14-4.4-4.4-10.9-10.1-14.5-12.7-3.6-2.5-9.5-6.5-13.3-8.7-3.7-2.3-10.9-5.9-16-8.2-5-2.2-13.3-5.2-18.2-6.5-4.9-1.3-9.8-2.4-10.8-2.4-1.5 0-1.7 1-1.6 6.8zm-46.9 64l-35.3 34.7 71.6 71.3 70.5-71.8c-54.3-53.1-70.4-68.6-70.8-68.7-0.4-0.1-16.6 15.4-36 34.5zm258.9 25.6l-0.1 32.6c20.8-0.6 24.5-1.1 28-2.6 2.5-1.1 6.3-3.6 8.5-5.6 2.2-1.9 5.1-5.9 6.5-8.9 2.1-4.6 2.5-6.9 2.5-15.9 0-9.2-0.3-11.1-2.5-15.4-1.4-2.7-4.5-6.7-7-8.8-2.5-2.1-6.5-4.6-9-5.4-2.5-0.9-9.5-1.8-15.6-2.1l-11.1-0.6zm104.8 18.7c-3.5 0.4-7.5 1.4-8.7 2.1-1.2 0.8-2.7 2.4-3.2 3.6-0.6 1.2-1.1 3.6-1.1 5.3 0 1.8 1 3.9 2.5 5.5 1.9 1.9 3.6 2.5 6.8 2.4 2.5 0 5.9-0.9 8.2-2.2 2.3-1.3 4.8-3.8 5.8-5.8 1-1.9 1.7-5.4 1.7-7.7 0-4-0.1-4.2-2.7-4.1-1.5 0.1-5.7 0.5-9.3 0.9zm124 0.1c-3.5 0.4-7.5 1.6-8.9 2.6-1.3 1-2.8 3.1-3.3 4.8-0.5 1.6-0.7 4-0.4 5.2 0.4 1.2 1.5 3.2 2.6 4.3 1.4 1.3 3.4 2 6.3 2 2.3 0 5.8-0.8 7.7-1.8 1.9-1 4.5-3.3 5.8-5.2 1.6-2.5 2.3-5 2.3-8.3-0.1-4.5-0.2-4.7-2.8-4.6-1.5 0.1-5.7 0.5-9.3 1zm81.7 75c-0.3 0.7-3.1 8.8-6.1 17.9-3 9-5.4 16.6-5.3 16.7 0.1 0.1 5.7 0.1 12.4 0l12.1-0.2c-9.2-27.2-12-35.2-12.1-35.4-0.1-0.2-0.6 0.2-1 1zm-94.2 21.1c-2.6 1.5-4.7 3.8-6.2 6.8-1.6 3.2-2.3 6.2-2.3 10.7 0 3.4 0.7 7.9 1.6 10 0.9 2.1 2.8 5 4.2 6.6 1.5 1.5 4.5 3.2 6.7 3.8 2.3 0.6 5.8 0.7 8 0.3 2.2-0.5 5.4-2 7-3.4 1.6-1.4 3.7-4.3 4.7-6.5 1-2.2 1.8-6.3 1.8-9 0-2.8-0.4-6.7-1-8.8-0.5-2.1-2.2-5.1-3.7-6.9-1.5-1.7-4-3.7-5.5-4.5-1.5-0.7-4.7-1.3-7-1.3-2.5 0-5.9 0.9-8.3 2.2z"/>
		<path id="Path 3" class="s1" d="m263.5 437.3c-2.8 1.3-6.7 4.3-8.8 6.8-2 2.4-4.4 6.4-5.2 8.9-0.9 2.5-1.5 6.7-1.5 9.5 0 2.7 0.6 7 1.5 9.5 0.8 2.5 3.2 6.5 5.2 8.9 2.1 2.4 6.1 5.5 8.8 6.9 4 2 6.5 2.6 12 2.6 4.4 0 8.4-0.7 10.8-1.7 2-0.9 5.6-3.4 7.9-5.6 2.5-2.1 5.3-6.2 6.7-9.2 2-4.6 2.3-6.6 1.9-12.9-0.3-4.2-1.2-8.9-2.1-10.8-0.9-1.7-3.2-4.8-5-6.9-1.7-2-5.5-4.7-8.2-6-3.7-1.7-6.8-2.3-12-2.3-5.2 0-8.3 0.6-12 2.3z"/>
	</g>
</svg>