<svg version="1.2" xmlns="http://www.w3.org/2000/svg" viewBox="0 0 1024 1024" width="1024" height="1024">
	<title>DataMindAI-logo</title>
	<style>
		.s0 { opacity: 1;fill: #fefefe } 
		.s1 { fill: #276fa9 } 
	</style>
	<g id="Background">
		<path id="Path 0" class="s0" d="m0 512v512h1024v-1024h-1024z"/>
		<path id="Path 1" class="s1" d="m484 227.6c-2.5 0.2-10.8 1.4-18.5 2.5-7.7 1.1-19.9 3.6-27 5.4-7.1 1.8-18.9 5.5-26 8.1-7.1 2.7-19.3 8-27 11.9-7.7 3.9-18.6 10-24.3 13.5-5.7 3.6-15.1 10.2-21 14.8-5.9 4.5-15.6 12.8-21.6 18.5-6 5.6-15.4 15.4-20.8 21.7-5.5 6.3-13.4 16.7-17.7 23-4.3 6.3-10.4 16.2-13.6 22-3.1 5.8-7.7 15.2-10.2 21-2.4 5.8-6 15.7-7.9 22-1.9 6.3-4.4 16.4-5.5 22.5-1.3 6.9-2.3 17.5-2.6 28.5-0.3 10.5-0.1 21.7 0.6 28 0.6 5.8 2.3 16.1 3.7 23 1.4 6.9 4.2 17.7 6.3 24 2.1 6.3 6.6 17.1 10.1 24 3.4 6.9 7.8 15 9.8 18 1.9 3 7.2 10.2 11.7 16 4.5 5.8 14.4 17 22 25 7.6 8 16.9 18.1 20.5 22.5 3.7 4.4 9.8 12.7 13.6 18.5 3.7 5.8 8.3 13.9 10.1 18 1.8 4.1 4.1 10.9 5.2 15 1 4.1 2.4 11 3 15.3 0.7 4.7 1.1 25.6 1.1 53.5 0 35.6 0.2 46 1.2 47 1 1 15.1 1.2 66 1.2h64.8c40.7 27.2 53.2 35.1 54 35 0.8 0 2.4-0.6 3.5-1.3 1.1-0.8 15.2-16.3 31.3-34.6 16-18.2 29.9-33.1 30.7-33.1 0.8 0 15.8 1.6 33.3 3.5 17.4 1.9 35.5 3.5 40.2 3.5 4.7 0 11.6-0.7 15.5-1.5 3.9-0.8 10.1-3 14-4.9 3.9-1.8 9.3-5.1 12-7.2 2.8-2.2 7.1-7.1 9.7-10.9 2.6-3.9 5.6-9.6 6.8-12.7 1.1-3.2 2.9-11.5 4-18.5 1.2-7.1 3.9-26.8 6.1-43.8 2.3-17 4.4-32.9 4.7-35.3l0.7-4.2c27.1-15.4 36.4-21.4 38.1-23.2 1.8-1.8 3.9-4.8 4.8-6.5 0.9-1.8 1.9-5 2.2-7 0.6-3.5-1.2-7.5-22-49l-22.6-45.3c5.4-15.1 7.6-22.9 8.5-27 0.9-4.1 1.9-13.1 2.2-20 0.4-7.4 0.1-17.2-0.7-24-0.7-6.3-2.5-16.7-4-23-1.6-6.3-4.5-16.2-6.5-22-1.9-5.8-6.9-17.3-11-25.5-4-8.3-11.3-20.9-16-28-4.8-7.1-12.1-17.2-16.3-22.4-4.2-5.2-11.5-13.3-16.2-18-4.7-4.7-13.5-12.6-19.5-17.4-6.1-4.9-16.4-12.5-23-16.8-6.6-4.4-19.2-11.5-28-15.9-8.8-4.3-21.9-10-29-12.6-7.1-2.5-18.9-6.1-26-7.9-7.1-1.8-18.2-4.1-24.5-5-7.7-1.2-19.2-1.8-35-2-12.9-0.2-25.5-0.1-28 0.1z"/>
		<path id="Path 2" class="s0" d="m470.5 273.2c-6.1 1-15.9 3.1-22 4.8-6.1 1.6-15.5 4.5-21 6.5-5.5 1.9-15.9 6.4-23 9.9-7.1 3.4-17.5 9.1-23 12.6-5.5 3.4-13.6 9-18 12.4-4.4 3.3-12.2 10.1-17.4 15.1-5.2 4.9-12.8 13.1-16.9 18-4.2 5-11 14.2-15.1 20.5-4.2 6.4-10.1 16.7-13.3 23-3.1 6.3-7.3 16.2-9.3 22-2 5.8-4.5 14.8-5.6 20-1.2 5.7-2.2 15.5-2.6 24.5-0.4 11.4-0.1 18.1 1.2 28 1 7.1 3 17.3 4.5 22.5 1.5 5.2 4.2 13.1 5.9 17.5 1.8 4.4 5.4 12 8.2 17 2.7 5 7.9 13 11.4 18 3.6 5 11.7 14.8 18.2 21.8 6.5 7 16 17.4 21.2 23 5.2 5.6 12.8 14.8 17 20.4 4.2 5.5 9.8 13.9 12.6 18.4 2.8 4.6 6.5 12.4 8.4 17.4 1.8 4.9 4.2 12.8 5.3 17.5 1.9 7.6 2.1 12.5 2.4 47.3l0.4 38.7h78v-148.5c-141.3-141.5-151-151.5-151.8-155-0.7-2.6-0.7-5.2-0.1-7.5 0.8-2.8 16.7-19.1 78.5-80.5l77.5-77-0.6-30.2zm57.3 13.6l0.2 14.7c118.4 117.8 153.7 153.6 154.9 155.5 1.2 2 2.1 4.9 2.1 6.5 0 1.7-1 4.6-2.1 6.5-1.2 2-37.6 39.1-81 82.5l-78.9 79v156l13 8.5c4.3-5.1 16.3-18.5 29.4-33l23.9-26.5c6.4 0.5 24.8 2.7 45.2 5.2 25.7 3.2 38.8 4.4 43 4 3.3-0.4 8.3-1.4 11-2.4 2.8-0.9 6.6-3.3 8.6-5.2 2-2 4.5-6 5.7-9.1 1.1-3 2.7-10.6 3.6-17 0.8-6.3 2.5-20 3.6-30.5 1.2-10.4 2.9-27.3 3.9-37.5 1.1-10.6 2.4-19.4 3.2-20.8 0.8-1.2 3.7-3.7 6.4-5.5 2.8-1.8 10.9-6.6 18.2-10.7l13.1-7.5-45.3-89.3 13-37.7c-0.1-23.5-0.7-29.5-2.4-37-1.2-5.5-3.7-14.7-5.7-20.5-1.9-5.7-5.9-15.4-8.9-21.5-2.9-6-7.9-15-11-20-3.1-4.9-8.7-13-12.5-18-3.7-4.9-11.9-13.9-18.2-20-6.2-6.1-14-13.1-17.3-15.6-3.3-2.5-11-7.8-17-11.8-6-4-17.3-10.4-25-14.1-7.7-3.8-18.7-8.4-24.5-10.4-5.8-2-14.8-4.7-20-6-5.2-1.4-13.5-3.1-18.5-4-5-0.8-10.1-1.5-11.5-1.5l-2.5-0.1zm-83.8 115.7l-61.5 61.5c43.7 44.6 71.4 72.5 89.7 90.7l33.3 33.2 121.5-122.8c-70.8-72.5-98.2-100.4-106.4-108.8l-15.1-15.2z"/>
		<path id="Path 3" class="s1" d="m493.5 411.5c-3.3 0.7-8.7 2.5-12 4-4 1.9-8.4 5.2-13 9.9-4.6 4.6-8.2 9.4-10.3 13.6-1.8 3.6-3.9 9.6-4.7 13.5-0.8 3.9-1.5 9-1.5 11.5 0 2.5 0.7 7.4 1.6 11 0.8 3.6 3 9.2 4.7 12.4 1.8 3.3 6 8.8 9.5 12.3 3.6 3.7 8.7 7.6 12.2 9.3 3.3 1.6 8.8 3.7 12.3 4.5 3.4 0.8 8.7 1.5 11.7 1.5 3 0 9.1-0.9 13.5-2 4.4-1.2 10.3-3.3 13-4.8 2.8-1.5 7.5-5.2 10.6-8.2 3.1-3.1 7-8.3 8.7-11.8 1.8-3.4 3.9-8.8 4.7-12 0.8-3.1 1.5-9.3 1.5-13.7 0-4.4-0.6-10.3-1.4-13-0.7-2.8-2.6-7.7-4.2-11-1.7-3.5-5.6-8.7-9.4-12.6-4-4.1-8.9-7.8-12.7-9.8-3.5-1.7-9.1-3.8-12.5-4.6-3.5-0.8-8.5-1.4-11.3-1.4-2.7 0-7.7 0.6-11 1.4z"/>
	</g>
</svg>